HIERARCHY
ROOT Hips
{
	OFFSET 0.00 0.00 0.00
	CHANNELS 6 Xposition Yposition Zposition Xrotation Yrotation Zrotation
	JOINT Spine
	{
		OFFSET 0.00000 6.11665 0.00000
		CHANNELS 3 Xrotation Yrotation Zrotation
		JOINT Head
		{
			OFFSET 0.00000 15.22556 0.00000
			CHANNELS 3 Xrotation Yrotation Zrotation
			End Site
			{
				OFFSET 0.00000 4.52755 0.00000
			}
		}
		JOINT LeftShoulder
		{
			OFFSET 0.00000 8.97765 0.00000
			CHANNELS 3 Xrotation Yrotation Zrotation
			JOINT LeftArm
			{
				OFFSET 7.11013 0.00000 0.00000
				CHANNELS 3 Xrotation Yrotation Zrotation
				JOINT LeftForeArm
				{
					OFFSET 10.39834 0.00000 0.00000
					CHANNELS 3 Yrotation Zrotation Xrotation
					JOINT LeftHand
					{
						OFFSET 8.88900 0.00000 0.00000
						CHANNELS 3 Xrotation Yrotation Zrotation
						JOINT LeftHandThumb1
						{
							OFFSET 0.00000 0.00000 0.00000
							CHANNELS 3 Xrotation Zrotation Yrotation
							End Site
							{
								OFFSET 0.00000 0.00000 3.93700
							}
						}
						End Site
						{
							OFFSET 3.93700 0.00000 0.00000
						}
					}
				}
			}
		}
		JOINT RightShoulder
		{
			OFFSET 0.00000 8.97765 0.00000
			CHANNELS 3 Xrotation Yrotation Zrotation
			JOINT RightArm
			{
				OFFSET -7.11013 0.00000 0.00000
				CHANNELS 3 Xrotation Yrotation Zrotation
				JOINT RightForeArm
				{
					OFFSET -10.39834 0.00000 0.00000
					CHANNELS 3 Yrotation Zrotation Xrotation
					JOINT RightHand
					{
						OFFSET -8.88900 0.00000 0.00000
						CHANNELS 3 Xrotation Yrotation Zrotation
						JOINT RightHandThumb1
						{
							OFFSET 0.00000 0.00000 0.00000
							CHANNELS 3 Xrotation Zrotation Yrotation
							End Site
							{
								OFFSET 0.00000 0.00000 3.93700
							}
						}
						End Site
						{
							OFFSET -3.93700 0.00000 0.00000
						}
					}
				}
			}
		}
	}
	JOINT LeftUpLeg
	{
		OFFSET 4.71176 0.00000 0.00000
		CHANNELS 3 Xrotation Yrotation Zrotation
		JOINT LeftLeg
		{
			OFFSET 0.00000 -15.51045 0.00000
			CHANNELS 3 Xrotation Yrotation Zrotation
			JOINT LeftFoot
			{
				OFFSET 0.00000 -14.85806 0.00000
				CHANNELS 3 Xrotation Yrotation Zrotation
				JOINT LeftToeBase
				{
					OFFSET 0.00000 -1.32744 4.95409
					CHANNELS 3 Xrotation Yrotation Zrotation
					End Site
					{
						OFFSET 0.00000 0.00000 2.95275
					}
				}
			}
		}
	}
	JOINT RightUpLeg
	{
		OFFSET -4.71176 0.00000 0.00000
		CHANNELS 3 Xrotation Yrotation Zrotation
		JOINT RightLeg
		{
			OFFSET 0.00000 -15.51045 0.00000
			CHANNELS 3 Xrotation Yrotation Zrotation
			JOINT RightFoot
			{
				OFFSET 0.00000 -14.85806 0.00000
				CHANNELS 3 Xrotation Yrotation Zrotation
				JOINT RightToeBase
				{
					OFFSET 0.00000 -1.32744 4.95409
					CHANNELS 3 Xrotation Yrotation Zrotation
					End Site
					{
						OFFSET 0.00000 0.00000 2.95275
					}
				}
			}
		}
	}
}
MOTION
Frames:	13
Frame Time: 0.008333
-3.5658 32.3416 -0.5986 -2.7179 -1.6587 -0.6869 3.3242 -4.8695 -0.2645 2.9122 3.6189 -0.8008 1.2183 25.8337 41.8949 -23.1252 -3.0683 -44.3874 -6.1092 0.0000 15.0364 -0.0890 -17.7300 -0.2923 32.8623 0.0000 24.3270 -11.7572 -8.5229 -41.6034 -17.4252 7.3037 42.4683 -8.2730 0.0000 21.0172 0.0276 9.9225 -0.1601 33.1476 -0.0000 -26.2537 7.8892 9.4547 -2.5932 0.4844 -0.0000 -0.0000 -9.8706 18.7726 -5.4635 11.0825 -0.0000 -0.0000 8.6700 -1.2709 1.7794 1.6952 -0.0000 -0.0000 -12.6522 -26.1502 11.2589 16.8826 -0.0000 -0.0000
-3.5641 32.3426 -0.6018 -2.7378 -1.6196 -0.6803 3.3497 -4.9422 -0.2243 2.9504 3.6441 -0.8452 1.2097 25.7046 41.8424 -23.2819 -3.1655 -44.5301 -6.1565 -0.0000 15.1269 -0.1891 -17.4772 -0.6295 32.8623 0.0000 24.3270 -11.7683 -8.4514 -41.5839 -17.2846 7.3843 42.4330 -8.3042 0.0000 20.8471 0.0426 9.9543 -0.2467 33.1476 -0.0000 -26.2537 7.8720 9.4367 -2.5964 0.5350 -0.0000 -0.0000 -9.8660 18.7754 -5.4433 10.9696 -0.0000 -0.0000 8.6780 -1.2756 1.7765 1.7146 -0.0000 -0.0000 -12.6464 -26.1772 11.2394 16.8300 -0.0000 -0.0000
-3.5628 32.3425 -0.6041 -2.7627 -1.5797 -0.6706 3.3767 -5.0163 -0.1864 2.9822 3.6801 -0.8883 1.1196 25.5496 41.7983 -23.2692 -3.4939 -44.6558 -6.1299 -0.0000 15.0380 -0.2015 -17.4379 -0.6725 32.8623 0.0000 24.3270 -11.7223 -8.4498 -41.6128 -17.2911 7.3529 42.4805 -8.2455 0.0000 20.7675 0.0268 10.0241 -0.1539 33.1476 -0.0000 -26.2537 7.8618 9.4377 -2.5993 0.5878 -0.0000 -0.0000 -9.9076 18.7753 -5.5335 11.2006 -0.0000 -0.0000 8.7016 -1.3070 1.7709 1.7225 -0.0000 -0.0000 -12.6197 -26.1677 11.2916 16.6810 -0.0000 -0.0000
-3.5596 32.3435 -0.6077 -2.7815 -1.5452 -0.6558 3.4002 -5.0711 -0.1516 3.0017 3.7171 -0.9176 1.0460 25.3459 41.7665 -23.3783 -3.6204 -44.8256 -6.1954 -0.0000 15.1722 -0.2087 -17.3557 -0.6996 32.8623 0.0000 24.3270 -11.7192 -8.4148 -41.6202 -17.1750 7.3487 42.4865 -8.1260 0.0000 20.7168 -0.0302 9.6903 0.1792 33.1476 -0.0000 -26.2537 7.8380 9.4376 -2.6127 0.6566 -0.0000 -0.0000 -9.8906 18.7343 -5.4691 11.0504 -0.0000 -0.0000 8.7126 -1.3236 1.7555 1.7339 -0.0000 -0.0000 -12.6664 -26.2096 11.2473 16.8591 -0.0000 -0.0000
-3.5588 32.3442 -0.6114 -2.8048 -1.5128 -0.6525 3.4256 -5.1315 -0.1097 3.0137 3.7645 -0.9369 0.9684 25.1772 41.6791 -23.5190 -3.8823 -44.9430 -6.2562 0.0000 15.2842 -0.1959 -17.2153 -0.6620 32.8623 0.0000 24.3270 -11.7087 -8.3427 -41.5740 -17.0277 7.3575 42.4258 -8.0965 0.0000 20.4405 -0.0486 9.8843 0.2830 33.1476 -0.0000 -26.2537 7.8236 9.4299 -2.6082 0.7097 -0.0000 -0.0000 -9.9079 18.7204 -5.4927 11.0829 -0.0000 -0.0000 8.7261 -1.3423 1.7576 1.7488 -0.0000 -0.0000 -12.6762 -26.2359 11.2218 16.8755 -0.0000 -0.0000
-3.5572 32.3437 -0.6140 -2.8367 -1.4877 -0.6416 3.4533 -5.1687 -0.0710 3.0461 3.7960 -0.9659 0.8089 25.0168 41.6150 -23.4983 -4.4373 -45.0821 -6.2608 -0.0000 15.0630 -0.1652 -17.3033 -0.5556 32.8623 0.0000 24.3270 -11.6364 -8.3947 -41.5814 -17.2138 7.1949 42.4625 -7.9850 -0.0000 20.5173 -0.0682 9.7375 0.4032 33.1476 -0.0000 -26.2537 7.8316 9.4156 -2.6176 0.7411 -0.0000 -0.0000 -9.9404 18.7470 -5.5631 11.2901 -0.0000 -0.0000 8.7518 -1.3629 1.7475 1.7600 -0.0000 -0.0000 -12.6941 -26.2362 11.2174 16.8454 -0.0000 -0.0000
-3.5566 32.3442 -0.6186 -2.8513 -1.4614 -0.6348 3.4620 -5.2041 -0.0371 3.0731 3.8010 -0.9629 0.6393 24.7803 41.6025 -23.8821 -4.4030 -45.3158 -6.3961 -0.0000 15.4832 -0.1667 -17.3445 -0.5591 32.8623 0.0000 24.3270 -11.5818 -8.4232 -41.5569 -17.3173 7.0631 42.4813 -7.8895 0.0000 20.5387 -0.0503 9.7523 0.2972 33.1476 -0.0000 -26.2537 7.8081 9.3974 -2.6184 0.7922 -0.0000 -0.0000 -9.9499 18.7590 -5.5689 11.2517 -0.0000 -0.0000 8.7583 -1.3581 1.7443 1.7654 -0.0000 -0.0000 -12.7021 -26.2624 11.1954 16.8777 -0.0000 -0.0000
-3.5550 32.3445 -0.6237 -2.8645 -1.4406 -0.6328 3.4651 -5.2173 0.0067 3.1066 3.7811 -0.9556 0.5042 24.5819 41.5166 -24.2144 -4.6316 -45.5018 -6.4865 0.0000 15.5209 -0.1481 -17.4051 -0.4950 32.8623 0.0000 24.3270 -11.5663 -8.4121 -41.5482 -17.3195 6.9340 42.5049 -7.7824 0.0000 20.5850 -0.0359 9.7427 0.2123 33.1476 -0.0000 -26.2537 7.7904 9.4075 -2.6208 0.8307 -0.0000 -0.0000 -9.9258 18.7084 -5.4643 11.0673 -0.0000 -0.0000 8.7592 -1.3590 1.7413 1.7746 -0.0000 -0.0000 -12.7022 -26.2806 11.2046 16.9090 -0.0000 -0.0000
-3.5536 32.3447 -0.6296 -2.8718 -1.4194 -0.6267 3.4497 -5.2250 0.0387 3.1680 3.7593 -0.9280 0.3528 24.3706 41.4476 -24.5882 -4.8543 -45.7318 -6.6471 0.0000 15.4913 -0.0893 -17.1866 -0.3022 32.8623 0.0000 24.3270 -11.5340 -8.4167 -41.5267 -17.3553 6.6994 42.5056 -7.4819 0.0000 20.6241 -0.0704 9.5715 0.4236 33.1476 -0.0000 -26.2537 7.7823 9.3590 -2.6234 0.8330 -0.0000 -0.0000 -9.9430 18.7742 -5.5833 11.2325 -0.0000 -0.0000 8.7499 -1.3629 1.7349 1.7938 -0.0000 -0.0000 -12.7045 -26.2867 11.2088 16.8768 -0.0000 -0.0000
-3.5526 32.3445 -0.6337 -2.8818 -1.3970 -0.6260 3.4341 -5.2321 0.0713 3.2183 3.7223 -0.8801 0.2889 24.2745 41.3528 -25.0720 -5.1982 -45.9974 -6.7704 0.0000 15.3220 -0.0033 -17.4507 -0.0112 32.8623 0.0000 24.3270 -11.5289 -8.3744 -41.4731 -17.0466 6.8967 42.5002 -7.4953 -0.0000 20.3051 -0.0246 9.5051 0.1489 33.1476 -0.0000 -26.2537 7.7745 9.3661 -2.6239 0.8481 -0.0000 -0.0000 -9.9440 18.7675 -5.5790 11.1611 -0.0000 -0.0000 8.7558 -1.3751 1.7361 1.7950 -0.0000 -0.0000 -12.6962 -26.2873 11.1928 16.7992 -0.0000 -0.0000
-3.5530 32.3443 -0.6377 -2.8919 -1.3757 -0.6256 3.4056 -5.2330 0.0990 3.3017 3.6834 -0.8422 0.1034 24.0716 41.3149 -25.7114 -5.2576 -46.3433 -6.9583 0.0000 15.4932 0.0564 -17.5751 0.1866 32.8623 0.0000 24.3270 -11.5010 -8.3518 -41.4410 -17.1148 6.5972 42.5329 -7.2428 -0.0000 20.4158 -0.0262 9.3847 0.1606 33.1476 -0.0000 -26.2537 7.7641 9.4405 -2.6263 0.8710 -0.0000 -0.0000 -9.9431 18.7033 -5.5521 11.1722 -0.0000 -0.0000 8.7646 -1.3724 1.7389 1.7902 -0.0000 -0.0000 -12.7035 -26.3073 11.1945 16.8357 -0.0000 -0.0000
-3.5506 32.3451 -0.6431 -2.8947 -1.3454 -0.6203 3.3653 -5.2144 0.1330 3.4032 3.6125 -0.8162 0.0736 23.9662 41.1695 -26.4747 -5.4638 -46.6678 -7.2074 0.0000 15.5775 0.0511 -17.3379 0.1716 32.8623 0.0000 24.3270 -11.4225 -8.4172 -41.3865 -17.2415 6.2988 42.5399 -6.9216 -0.0000 20.5587 -0.0206 9.3053 0.1276 33.1476 -0.0000 -26.2537 7.7587 9.4372 -2.6290 0.8603 -0.0000 -0.0000 -9.9197 18.6782 -5.5941 11.2049 -0.0000 -0.0000 8.7592 -1.3882 1.7322 1.7946 -0.0000 -0.0000 -12.6975 -26.3126 11.2198 16.8761 -0.0000 -0.0000
-3.5480 32.3457 -0.6484 -2.8983 -1.3086 -0.6149 3.3203 -5.1913 0.1543 3.5027 3.5508 -0.7490 -0.0245 23.7628 41.0584 -27.2453 -5.5543 -47.0387 -7.5517 0.0000 15.5803 -0.0484 -17.2686 -0.1632 32.8623 0.0000 24.3270 -11.4207 -8.3797 -41.2915 -17.1528 6.1599 42.5249 -6.8244 0.0000 20.4435 0.0362 9.3642 -0.2225 33.1476 -0.0000 -26.2537 7.7510 9.4325 -2.6350 0.8570 -0.0000 -0.0000 -9.9056 18.6620 -5.5936 11.1889 -0.0000 -0.0000 8.7588 -1.3996 1.7249 1.7944 -0.0000 -0.0000 -12.6945 -26.3159 11.1950 16.8599 -0.0000 -0.0000
